<?xml version="1.0" encoding="UTF-8"?>
<svg xmlns="http://www.w3.org/2000/svg" xmlns:xlink="http://www.w3.org/1999/xlink" width="px" height="px" viewBox="0 0 361 122" version="1.1">
<defs>
<filter id="alpha" filterUnits="objectBoundingBox" x="0%" y="0%" width="100%" height="100%">
  <feColorMatrix type="matrix" in="SourceGraphic" values="0 0 0 0 1 0 0 0 0 1 0 0 0 0 1 0 0 0 1 0"/>
</filter>
<mask id="mask0">
  <g filter="url(#alpha)">
<rect x="0" y="0" width="361" height="122" style="fill:rgb(0%,0%,0%);fill-opacity:0.701961;stroke:none;"/>
  </g>
</mask>
<clipPath id="clip1">
  <rect x="0" y="0" width="361" height="122"/>
</clipPath>
<g id="surface5" clip-path="url(#clip1)">
<path style=" stroke:none;fill-rule:evenodd;fill:rgb(100%,100%,100%);fill-opacity:1;" d="M 109.34375 111.074219 C 106.03125 113.230469 102.691406 115.058594 99.378906 116.535156 C 86.289062 122.367188 73.78125 122.65625 64.765625 116.414062 C 62.703125 114.992188 60.898438 113.277344 59.355469 111.308594 C 68.914062 104.910156 78.199219 95.824219 86.023438 84.589844 C 104.84375 57.570312 109.011719 27.011719 97.382812 10.941406 C 100.703125 8.777344 104.050781 6.945312 107.375 5.464844 C 120.464844 -0.367188 132.96875 -0.65625 141.988281 5.582031 C 144.042969 7.003906 145.84375 8.714844 147.386719 10.675781 C 137.820312 17.078125 128.523438 26.164062 120.691406 37.410156 C 101.867188 64.4375 97.703125 95.007812 109.34375 111.074219 Z M 96.78125 10.140625 C 113.398438 -0.699219 130.734375 -3.414062 142.558594 4.761719 C 144.726562 6.261719 146.613281 8.0625 148.222656 10.121094 C 164.828125 -0.703125 182.140625 -3.410156 193.957031 4.761719 C 196.128906 6.265625 198.023438 8.074219 199.636719 10.140625 C 216.253906 -0.699219 233.589844 -3.414062 245.414062 4.761719 C 247.582031 6.261719 249.46875 8.0625 251.078125 10.121094 C 267.683594 -0.703125 284.996094 -3.410156 296.808594 4.761719 C 298.984375 6.265625 300.875 8.074219 302.488281 10.140625 C 319.109375 -0.699219 336.445312 -3.414062 348.269531 4.761719 C 356.390625 10.382812 360.589844 20.226562 361 32.09375 L 360 32.09375 C 359.589844 20.449219 355.46875 10.960938 347.695312 5.582031 C 338.679688 -0.65625 326.171875 -0.367188 313.082031 5.464844 C 309.761719 6.945312 306.414062 8.777344 303.089844 10.941406 C 314.722656 27.011719 310.554688 57.570312 291.734375 84.589844 C 283.910156 95.824219 274.621094 104.910156 265.0625 111.308594 C 266.609375 113.277344 268.414062 114.992188 270.472656 116.414062 C 279.492188 122.65625 291.996094 122.367188 305.085938 116.535156 C 310.804688 113.988281 316.601562 110.394531 322.210938 105.871094 L 322.210938 107.148438 C 303.734375 121.792969 283.289062 126.496094 269.902344 117.238281 C 267.730469 115.734375 265.839844 113.929688 264.226562 111.867188 C 247.613281 122.699219 230.289062 125.414062 218.46875 117.238281 C 216.300781 115.738281 214.414062 113.933594 212.800781 111.875 C 196.191406 122.703125 178.867188 125.410156 167.046875 117.238281 C 164.875 115.734375 162.984375 113.929688 161.371094 111.863281 C 144.757812 122.699219 127.433594 125.414062 115.617188 117.238281 C 113.449219 115.738281 111.558594 113.933594 109.949219 111.875 C 93.335938 122.703125 76.011719 125.410156 64.191406 117.238281 C 62.019531 115.734375 60.128906 113.929688 58.515625 111.863281 C 41.902344 122.699219 24.578125 125.414062 12.761719 117.238281 C -6.070312 104.207031 -3.796875 68.46875 17.835938 37.410156 C 39.46875 6.351562 72.269531 -8.265625 91.101562 4.761719 C 93.273438 6.265625 95.167969 8.074219 96.78125 10.140625 Z M 57.914062 111.066406 C 54.59375 113.226562 51.25 115.054688 47.933594 116.535156 C 34.847656 122.367188 22.347656 122.65625 13.332031 116.414062 C 4.316406 110.179688 0.21875 98.402344 1.125 84.148438 C 2.03125 69.910156 7.929688 53.382812 18.660156 37.976562 C 29.390625 22.574219 42.863281 11.285156 55.929688 5.464844 C 69.011719 -0.367188 81.511719 -0.65625 90.53125 5.582031 C 92.589844 7.011719 94.394531 8.726562 95.941406 10.695312 C 86.382812 17.097656 77.097656 26.175781 69.269531 37.410156 C 50.441406 64.429688 46.273438 94.996094 57.914062 111.066406 Z M 58.75 110.511719 C 53.957031 103.917969 51.878906 94.714844 52.550781 84.148438 C 53.457031 69.910156 59.359375 53.382812 70.09375 37.976562 C 77.867188 26.816406 87.085938 17.820312 96.542969 11.492188 C 101.332031 18.089844 103.410156 27.289062 102.738281 37.855469 C 101.832031 52.089844 95.933594 68.617188 85.203125 84.023438 C 77.425781 95.183594 68.210938 104.1875 58.75 110.511719 Z M 110.183594 110.523438 C 105.386719 103.925781 103.308594 94.71875 103.980469 84.148438 C 104.882812 69.910156 110.785156 53.382812 121.511719 37.976562 C 129.296875 26.804688 138.523438 17.796875 147.988281 11.472656 C 151.894531 16.839844 154.003906 23.9375 154.289062 32.09375 L 155.289062 32.09375 C 155.003906 23.792969 152.863281 16.484375 148.828125 10.917969 C 152.136719 8.765625 155.472656 6.941406 158.78125 5.464844 C 171.867188 -0.367188 184.367188 -0.65625 193.382812 5.582031 C 195.445312 7.011719 197.25 8.726562 198.796875 10.695312 C 189.238281 17.097656 179.949219 26.175781 172.125 37.410156 C 153.296875 64.429688 149.128906 94.996094 160.769531 111.066406 C 157.449219 113.226562 154.105469 115.054688 150.789062 116.535156 C 137.703125 122.367188 125.203125 122.65625 116.1875 116.414062 C 114.132812 114.992188 112.332031 113.28125 110.785156 111.320312 C 112.707031 110.035156 114.613281 108.644531 116.5 107.148438 L 116.5 105.871094 C 114.414062 107.550781 112.304688 109.105469 110.183594 110.523438 Z M 257.144531 32.09375 C 256.855469 23.9375 254.75 16.839844 250.84375 11.472656 C 241.378906 17.796875 232.152344 26.804688 224.367188 37.976562 C 213.636719 53.382812 207.738281 69.910156 206.835938 84.148438 C 206.160156 94.71875 208.242188 103.925781 213.039062 110.523438 C 215.160156 109.105469 217.269531 107.550781 219.355469 105.871094 L 219.355469 107.148438 C 217.46875 108.644531 215.558594 110.035156 213.640625 111.320312 C 215.183594 113.28125 216.984375 114.992188 219.042969 116.414062 C 228.058594 122.65625 240.558594 122.367188 253.644531 116.535156 C 256.960938 115.054688 260.304688 113.226562 263.621094 111.066406 C 251.984375 94.996094 256.152344 64.429688 274.980469 37.410156 C 282.804688 26.175781 292.09375 17.097656 301.652344 10.695312 C 300.105469 8.726562 298.300781 7.011719 296.238281 5.582031 C 287.222656 -0.65625 274.722656 -0.367188 261.636719 5.464844 C 258.328125 6.941406 254.992188 8.765625 251.679688 10.917969 C 255.71875 16.484375 257.859375 23.792969 258.144531 32.09375 Z M 244.84375 5.582031 C 246.898438 7.003906 248.695312 8.714844 250.238281 10.675781 C 240.671875 17.078125 231.378906 26.164062 223.546875 37.410156 C 204.722656 64.4375 200.554688 95.007812 212.199219 111.074219 C 208.886719 113.230469 205.546875 115.058594 202.234375 116.535156 C 189.144531 122.367188 176.636719 122.65625 167.617188 116.414062 C 165.558594 114.992188 163.753906 113.277344 162.210938 111.308594 C 171.765625 104.910156 181.054688 95.824219 188.878906 84.589844 C 207.699219 57.570312 211.867188 27.011719 200.238281 10.941406 C 203.558594 8.777344 206.90625 6.945312 210.226562 5.464844 C 223.316406 -0.367188 235.824219 -0.65625 244.84375 5.582031 Z M 290.914062 84.023438 C 283.136719 95.183594 273.917969 104.1875 264.460938 110.511719 C 259.667969 103.917969 257.589844 94.714844 258.261719 84.148438 C 259.167969 69.910156 265.066406 53.382812 275.800781 37.976562 C 283.578125 26.816406 292.796875 17.820312 302.253906 11.492188 C 307.042969 18.089844 309.117188 27.289062 308.445312 37.855469 C 307.542969 52.089844 301.640625 68.617188 290.914062 84.023438 Z M 161.605469 110.511719 C 171.0625 104.1875 180.28125 95.183594 188.058594 84.023438 C 198.789062 68.617188 204.6875 52.089844 205.59375 37.855469 C 206.261719 27.289062 204.1875 18.089844 199.398438 11.492188 C 189.941406 17.820312 180.722656 26.816406 172.945312 37.976562 C 162.214844 53.382812 156.3125 69.910156 155.40625 84.148438 C 154.734375 94.714844 156.8125 103.917969 161.605469 110.511719 Z M 161.605469 110.511719 "/>
</g>
</defs>
<g id="surface1">
<use xlink:href="#surface5" mask="url(#mask0)"/>
</g>
</svg>
