<?xml version="1.0" encoding="UTF-8"?>
<svg xmlns="http://www.w3.org/2000/svg" xmlns:xlink="http://www.w3.org/1999/xlink" width="px" height="px" viewBox="0 0 19 19" version="1.1">
<g id="surface1">
<path style=" stroke:none;fill-rule:nonzero;fill:rgb(23.921569%,86.27451%,51.764706%);fill-opacity:1;" d="M 8.195312 0.675781 C 8.832031 -0.226562 10.167969 -0.226562 10.804688 0.675781 C 11.25 1.308594 12.082031 1.53125 12.78125 1.207031 C 13.785156 0.742188 14.941406 1.410156 15.042969 2.511719 C 15.109375 3.28125 15.71875 3.890625 16.488281 3.957031 C 17.589844 4.058594 18.257812 5.214844 17.792969 6.21875 C 17.46875 6.917969 17.691406 7.75 18.324219 8.195312 C 19.226562 8.832031 19.226562 10.167969 18.324219 10.804688 C 17.691406 11.25 17.46875 12.082031 17.792969 12.78125 C 18.257812 13.785156 17.589844 14.941406 16.488281 15.042969 C 15.71875 15.109375 15.109375 15.71875 15.042969 16.488281 C 14.941406 17.589844 13.785156 18.257812 12.78125 17.792969 C 12.082031 17.46875 11.25 17.691406 10.804688 18.324219 C 10.167969 19.226562 8.832031 19.226562 8.195312 18.324219 C 7.75 17.691406 6.917969 17.46875 6.21875 17.792969 C 5.214844 18.257812 4.058594 17.589844 3.957031 16.488281 C 3.890625 15.71875 3.28125 15.109375 2.511719 15.042969 C 1.410156 14.941406 0.742188 13.785156 1.207031 12.78125 C 1.53125 12.082031 1.308594 11.25 0.675781 10.804688 C -0.226562 10.167969 -0.226562 8.832031 0.675781 8.195312 C 1.308594 7.75 1.53125 6.917969 1.207031 6.21875 C 0.742188 5.214844 1.410156 4.058594 2.511719 3.957031 C 3.28125 3.890625 3.890625 3.28125 3.957031 2.511719 C 4.058594 1.410156 5.214844 0.742188 6.21875 1.207031 C 6.917969 1.53125 7.75 1.308594 8.195312 0.675781 Z M 8.195312 0.675781 "/>
</g>
</svg>
